<svg width="282" height="165" viewBox="0 0 282 165" fill="none" xmlns="http://www.w3.org/2000/svg">
<path d="M3.78601 7.94138H12.3183V11.1792H3.78601V18.005H0.219971V0.415527H13.3465V3.63152H3.78601V7.94138Z" fill="white"/>
<path d="M17.1533 18.005V0.415527H20.7193V18.005H17.1533Z" fill="white"/>
<path d="M42.0061 18.005H39.0089L29.2733 6.71624V18.005H25.7073V0.415527H28.7045L38.44 12.0106V0.415527H42.0061V18.005Z" fill="white"/>
<path d="M60.3613 18.005H47.0159V0.415527H60.3175V3.63152H50.582V7.59134H59.5518V10.7636H50.582V14.7453H60.3613V17.9831V18.005Z" fill="white"/>
<path d="M77.6225 18.005H64.9774V0.415527H68.5435V14.7672H77.6225V18.005Z" fill="white"/>
<path d="M87.6205 18.0056H84.0545V12.4487L77.0975 0.437988H81.0354L85.8266 8.72956L90.596 0.437988H94.6871L87.5986 12.405V18.0275L87.6205 18.0056Z" fill="white"/>
<path d="M117.593 13.9578C118.512 13.214 119.146 12.1201 119.452 10.6543L122.909 11.3544C122.493 13.564 121.487 15.2705 119.89 16.5175C118.293 17.7645 116.411 18.3771 114.246 18.3771C111.664 18.3771 109.476 17.502 107.682 15.7299C105.888 13.9578 105.013 11.792 105.013 9.18854C105.013 6.58512 105.91 4.44113 107.682 2.66905C109.454 0.896977 111.642 0 114.246 0C116.39 0 118.271 0.61257 119.868 1.81583C121.465 3.04097 122.471 4.68178 122.909 6.76014L119.452 7.72275C119.146 6.27884 118.512 5.18496 117.571 4.44113C116.63 3.69729 115.536 3.34725 114.246 3.34725C112.648 3.34725 111.314 3.89419 110.242 5.00994C109.148 6.1257 108.623 7.50398 108.623 9.16667C108.623 10.8294 109.17 12.2295 110.264 13.3453C111.358 14.461 112.692 15.0298 114.267 15.0298C115.558 15.0298 116.674 14.6579 117.593 13.936V13.9578Z" fill="white"/>
<path d="M138.354 18.005L132.557 11.5512H130.697V18.005H127.131V0.415527H135.554C137.436 0.415527 138.967 0.918709 140.127 1.94695C141.286 2.97519 141.855 4.30972 141.855 5.97241C141.855 7.4382 141.396 8.66334 140.499 9.64783C139.58 10.6323 138.354 11.223 136.823 11.4637L142.73 18.005H138.376H138.354ZM135.554 8.3133C136.386 8.3133 137.042 8.09452 137.545 7.67885C138.048 7.2413 138.311 6.69437 138.311 5.99429C138.311 5.29421 138.048 4.72539 137.545 4.30972C137.042 3.87217 136.364 3.67527 135.554 3.67527H130.697V8.33518H135.554V8.3133Z" fill="white"/>
<path d="M159.269 18.005L157.738 14.264H149.971L148.418 18.005H144.568L152.181 0.415527H155.506L163.12 18.005H159.269ZM153.866 4.74727L151.284 11.0261H156.403L153.866 4.74727Z" fill="white"/>
<path d="M169.836 7.94138H178.368V11.1792H169.836V18.005H166.27V0.415527H179.397V3.63152H169.836V7.94138Z" fill="white"/>
<path d="M191.32 3.6534V18.005H187.754V3.6534H181.913V0.415527H197.183V3.63152H191.342L191.32 3.6534Z" fill="white"/>
<path d="M214.204 18.005H200.858V0.415527H214.16V3.63152H204.424V7.59134H213.394V10.7636H204.424V14.7453H214.204V17.9831V18.005Z" fill="white"/>
<path d="M225.296 0.415527C228.205 0.415527 230.524 1.22499 232.296 2.84393C234.068 4.46286 234.944 6.58498 234.944 9.21028C234.944 11.8356 234.068 13.9577 232.296 15.5766C230.524 17.1956 228.183 18.005 225.296 18.005H218.82V0.415527H225.296ZM225.296 14.7672C227.133 14.7672 228.599 14.264 229.693 13.2576C230.787 12.2512 231.356 10.8948 231.356 9.21028C231.356 7.52571 230.809 6.16931 229.693 5.16294C228.599 4.15658 227.133 3.6534 225.296 3.6534H222.386V14.7672H225.296Z" fill="white"/>
<path d="M258.134 9.01338C258.943 9.12277 259.643 9.53844 260.278 10.2604C260.89 10.9824 261.218 11.945 261.218 13.1045C261.218 14.5921 260.737 15.7735 259.796 16.6486C258.856 17.5237 257.434 17.9831 255.552 17.9831H246.867V0.415527H255.53C257.105 0.415527 258.374 0.853077 259.315 1.75005C260.256 2.64703 260.737 3.82841 260.737 5.29421C260.737 6.30057 260.475 7.13191 259.928 7.78824C259.381 8.44456 258.79 8.81648 258.177 8.92587V9.03526L258.134 9.01338ZM250.411 7.74448H254.874C255.596 7.74448 256.165 7.54759 256.602 7.13192C257.04 6.71624 257.237 6.16931 257.237 5.4911C257.237 4.90041 257.04 4.39723 256.624 4.02531C256.208 3.63152 255.705 3.4565 255.115 3.4565H250.411V7.76636V7.74448ZM255.136 14.9422C255.924 14.9422 256.515 14.7453 256.93 14.3515C257.346 13.9577 257.543 13.4326 257.543 12.7544C257.543 12.0762 257.324 11.5512 256.909 11.1574C256.493 10.7636 255.946 10.5667 255.246 10.5667H250.389V14.9203H255.115L255.136 14.9422Z" fill="white"/>
<path d="M274.411 18.0056H270.844V12.4487L263.887 0.437988H267.825L272.617 8.72956L277.386 0.437988H281.477L274.389 12.405V18.0275L274.411 18.0056Z" fill="white"/>
<path d="M33.6926 67.0762C33.6926 74.2739 28.5514 78.9994 19.1659 78.9994C16.3219 78.9994 13.2372 78.6932 10.4587 78.0806V91.8196H5.79883V55.5249H19.8222C28.7045 55.5249 33.6707 60.0535 33.6707 67.0762H33.6926ZM28.8576 67.0762C28.8576 61.3224 25.401 57.8877 18.9909 57.8877H10.4587V75.7397C12.9965 76.2866 15.8405 76.6585 18.8158 76.6585C25.4009 76.6585 28.8576 73.2019 28.8576 67.0981V67.0762Z" fill="white"/>
<path d="M68.9372 55.5249H71.4094V78.2775C71.4094 87.3566 65.6118 92.4322 56.292 92.4322C47.6504 92.4322 41.2403 87.7723 41.2403 78.2775V55.5249H45.9002V78.5181C45.9002 85.9565 50.5601 90.0038 57.1452 90.0038C63.7304 90.0038 68.9372 86.1971 68.9372 78.3212V55.5249Z" fill="white"/>
<path d="M110.133 91.7544C103.832 93.7453 101.775 89.4573 99.6751 83.3972C97.9905 78.6717 96.284 75.6526 91.0334 75.6526H86.7892V91.7982H82.1293V55.5034H94.3369C102.257 55.5034 106.676 59.6164 106.676 65.5452C106.676 70.2051 103.657 73.7055 98.5156 75.04C101.732 76.6808 103.241 79.328 104.138 82.0627C105.954 87.3352 106.326 90.5293 109.695 89.7417L110.111 91.7325L110.133 91.7544ZM93.44 73.3117C98.8875 73.3117 101.797 70.2926 101.797 65.5671C101.797 60.8415 98.8875 57.8881 93.44 57.8881H86.7892V73.3117H93.44Z" fill="white"/>
<path d="M124.397 57.8877V89.4569H129.669V91.8196H114.486V89.4569H119.759V57.8877H114.486V55.5249H129.669V57.8877H124.397Z" fill="white"/>
<path d="M168.72 55.5248V92.7165H167.517L140.345 62.5256V91.7977H137.917V54.606H139.12L166.27 84.8406V55.5029H168.699L168.72 55.5248Z" fill="white"/>
<path d="M207.181 55.5249H209.653V78.2775C209.653 87.3566 203.856 92.4322 194.536 92.4322C185.894 92.4322 179.484 87.7723 179.484 78.2775V55.5249H184.144V78.5181C184.144 85.9565 188.804 90.0038 195.389 90.0038C201.974 90.0038 207.181 86.1971 207.181 78.3212V55.5249Z" fill="white"/>
<path d="M237.897 83.2877C237.897 72.9396 218.47 77.9715 218.47 64.5387C218.47 58.5005 223.195 54.9126 230.327 54.9126C234.44 54.9126 238.138 56.1159 240.741 57.9317L239.472 59.9225C237.175 58.3474 233.959 57.2535 230.634 57.2535C225.864 57.2535 222.648 59.485 222.648 63.2917C222.648 73.7491 242.076 68.7392 242.076 82.1063C242.076 88.6477 236.934 92.3887 229.255 92.3887C223.939 92.3887 219.87 90.9886 217.398 89.0634L218.732 87.0069C221.029 88.6914 224.53 90.026 229.08 90.026C234.222 90.026 237.919 87.5976 237.919 83.2439L237.897 83.2877Z" fill="white"/>
<path d="M276.248 91.8201L271.523 81.297C265.528 82.5659 259.118 82.4565 253.189 80.9251L248.289 91.8201H245.62L262.444 55.2847H264.675L281.499 91.8201H276.226H276.248ZM270.56 79.1093L262.334 60.7759L254.218 78.7373C259.49 80.0719 265.156 80.1812 270.538 79.1093H270.56Z" fill="white"/>
<path d="M80.4229 147.454V159.618C77.0975 162.834 72.0656 164.999 65.7211 164.999C54.7824 164.999 46.841 157.255 46.841 146.25C46.841 135.246 54.6512 127.501 65.8306 127.501C71.4532 127.501 75.5005 129.383 78.7821 132.161L77.3381 134.087C74.0127 131.418 70.5123 129.842 66.1368 129.842C57.4952 129.842 51.9165 136.187 51.9165 146.229C51.9165 156.27 57.4297 162.615 65.94 162.615C69.5717 162.615 72.9626 161.652 75.7411 159.946V147.432H80.401L80.4229 147.454Z" fill="white"/>
<path d="M117.33 164.322C111.029 166.313 108.973 162.025 106.873 155.965C105.188 151.239 103.482 148.22 98.2312 148.22H93.987V164.366H89.3271V128.071H101.535C109.454 128.071 113.874 132.184 113.874 138.113C113.874 142.772 110.854 146.273 105.713 147.607C108.929 149.248 110.439 151.895 111.336 154.63C113.152 159.903 113.524 163.097 116.893 162.309L117.308 164.3L117.33 164.322ZM100.638 145.879C106.085 145.879 108.995 142.86 108.995 138.134C108.995 133.409 106.085 130.455 100.638 130.455H93.987V145.879H100.638Z" fill="white"/>
<path d="M121.246 146.25C121.246 135.312 129.232 127.501 140.302 127.501C151.372 127.501 159.291 135.312 159.291 146.25C159.291 157.189 151.306 164.999 140.302 164.999C129.297 164.999 121.246 157.189 121.246 146.25ZM154.281 146.25C154.281 136.515 148.724 129.864 140.302 129.864C131.879 129.864 126.322 136.515 126.322 146.25C126.322 155.986 131.879 162.637 140.302 162.637C148.724 162.637 154.281 155.986 154.281 146.25Z" fill="white"/>
<path d="M195.389 128.092H197.861V150.845C197.861 159.924 192.064 165 182.744 165C174.102 165 167.692 160.34 167.692 150.845V128.092H172.352V151.086C172.352 158.524 177.012 162.571 183.597 162.571C190.182 162.571 195.389 158.765 195.389 150.889V128.092Z" fill="white"/>
<path d="M236.453 139.644C236.453 146.841 231.312 151.567 221.926 151.567C219.082 151.567 215.998 151.261 213.219 150.648V164.387H208.559V128.092H222.583C231.465 128.092 236.431 132.621 236.431 139.644H236.453ZM231.618 139.644C231.618 133.89 228.161 130.455 221.751 130.455H213.219V148.307C215.757 148.854 218.601 149.204 221.576 149.204C228.162 149.204 231.618 145.747 231.618 139.644Z" fill="white"/>
</svg>
