<svg width="580" height="29" viewBox="0 0 580 29" fill="none" xmlns="http://www.w3.org/2000/svg">
<path d="M15.6344 25.5615L18.6479 27.5291H8.1363L11.132 25.5615V16.9112L3.15525 3.31518L0 1.06396H12.231L8.29583 3.31518L14.9077 14.7663H15.4749L21.8032 3.27973L17.9034 1.06396H26.1993L22.7249 3.27973L15.599 16.0426V25.5615H15.6344Z" fill="white"/>
<path d="M25.7916 14.0921C25.7916 6.61162 31.9425 0.496094 39.2811 0.496094C46.6198 0.496094 52.8062 6.61162 52.8062 14.0921C52.8062 21.5725 46.5843 27.9716 39.2811 27.9716C31.978 27.9716 25.7916 21.7498 25.7916 14.0921ZM47.9315 14.0921C47.9315 6.18619 44.6699 1.29377 39.2811 1.29377C33.8924 1.29377 30.6308 6.07984 30.6308 14.0921C30.6308 22.1043 33.9278 27.174 39.2811 27.174C44.6344 27.174 47.9315 22.3525 47.9315 14.0921Z" fill="white"/>
<path d="M58.7799 3.20883L55.9969 1.06396H66.0122L63.2646 3.20883L63.3001 18.7369C63.3001 22.6012 66.4198 25.3843 70.7096 25.3843C74.9993 25.3843 77.7469 22.6722 77.7469 18.8788V3.20883L73.9535 1.06396H82.462L78.6686 3.20883L78.7041 19.1978C78.7041 24.2852 74.5916 27.9546 68.9724 27.9546C63.0341 27.9546 58.7799 24.4448 58.7799 19.5878V3.20883Z" fill="white"/>
<path d="M92.1051 14.4472V25.5615L94.8881 27.5291H84.8728L87.6204 25.5615V3.20883L84.8728 1.06396H96.6076C102.475 1.06396 106.623 3.88242 106.623 7.49856C106.623 10.4943 103.733 13.0469 99.4615 14.0041V14.6067L110.842 27.5114H105.081L94.1082 14.4295H92.1051V14.4472ZM92.1051 1.82619V13.7736H95.6149C99.621 13.7736 102.049 11.2033 102.049 7.6581C102.049 4.11286 99.6919 1.82619 95.863 1.82619H92.1051Z" fill="white"/>
<path d="M147.411 3.20838V28.6454L127.593 5.51278H127.167V25.4015L130.961 27.5464H122.488L126.281 25.4015V3.98832L123.498 1.20532L129.578 0.708984L146.028 19.9419H146.489V3.24382L142.696 1.09896H151.204L147.411 3.24382V3.20838Z" fill="white"/>
<path d="M176.57 18.8433L175.613 26.8555V27.5291H153.863L156.611 25.3843V3.20883L153.863 1.06396H174.354V1.73756L175.365 8.77485L170.136 1.80846H161.095V13.4014L166.679 13.3659L169.533 8.75712V18.7369L166.679 14.0927L161.095 14.1281V26.7846H171.323L176.588 18.8433H176.57Z" fill="white"/>
<path d="M207.361 27.5291H194.562L198.533 25.2779L192.134 16.0071H191.567L184.37 25.2779L188.376 27.5291H179.655L183.377 25.207L191.46 15.0145L183.342 3.35064L179.903 1.06396H192.737L188.766 3.31518L194.669 11.8237H195.165L201.529 3.31518L197.487 1.06396H206.208L202.557 3.31518L195.36 12.8696L203.939 25.2424L207.343 27.5291H207.361Z" fill="white"/>
<path d="M224.112 1.82555V25.5786L227.373 27.5462H216.401L219.663 25.5786V1.82555H215.089L209.257 9.4478L210.48 1.75464V1.08105H233.329V1.75464L234.553 9.4478L228.721 1.82555H224.147H224.112Z" fill="white"/>
<path d="M269.633 17.9925L268.587 26.8555V27.5291H247.315L250.063 25.4906V3.03157L247.315 1.06396H257.792L254.53 3.03157V26.7137H264.155L269.633 17.9925Z" fill="white"/>
<path d="M295.726 18.8433L294.751 26.8555V27.5291H273.001L275.748 25.3843V3.20883L273.001 1.06396H293.492V1.73756L294.485 8.77485L289.255 1.80846H280.215V13.4014L285.799 13.3659L288.653 8.75712V18.7369L285.799 14.0927L280.215 14.1281V26.7846H290.443L295.708 18.8433H295.726Z" fill="white"/>
<path d="M312.14 28.6807L300.831 3.33228L297.729 1.08105H309.711L305.918 3.22592L313.753 21.1825H314.249L321.109 3.26137L317.21 1.08105H325.576L322.067 3.26137L312.122 28.6807H312.14Z" fill="white"/>
<path d="M350.801 18.8433L349.843 26.8555V27.5291H328.093L330.841 25.3843V3.20883L328.093 1.06396H348.585V1.73756L349.595 8.77485L344.366 1.80846H335.326V13.4014L340.91 13.3659L343.763 8.75712V18.7369L340.91 14.0927L335.326 14.1281V26.7846H345.554L350.818 18.8433H350.801Z" fill="white"/>
<path d="M376.557 17.9925L375.529 26.8555V27.5291H354.257L357.005 25.4906V3.03157L354.257 1.06396H364.734L361.472 3.03157V26.7137H371.097L376.575 17.9925H376.557Z" fill="white"/>
<path d="M389.869 14.0921C389.869 6.61162 396.02 0.496094 403.359 0.496094C410.697 0.496094 416.884 6.61162 416.884 14.0921C416.884 21.5725 410.662 27.9716 403.359 27.9716C396.056 27.9716 389.869 21.7498 389.869 14.0921ZM412.009 14.0921C412.009 6.18619 408.748 1.29377 403.359 1.29377C397.97 1.29377 394.708 6.07984 394.708 14.0921C394.708 22.1043 398.005 27.174 403.359 27.174C408.712 27.174 412.009 22.3525 412.009 14.0921Z" fill="white"/>
<path d="M427.714 1.82589V13.4188L433.724 13.3834L436.578 8.77455V18.7544L433.724 14.1101L427.714 14.1456V25.5967L430.976 27.5643H420.5L423.247 25.5258V3.24398L420.5 1.09912H441.878V1.77272L442.888 9.04044L437.446 1.84362H427.714V1.82589Z" fill="white"/>
<path d="M457.583 25.2065V3.03111L455.722 0.708984H467.279L465.134 3.03111V12.8691H473.997V3.03111L471.853 0.708984H483.41L481.549 3.03111V25.2065L483.41 27.5287H471.853L473.997 25.2065V13.6491H465.134V25.2065L467.279 27.5287H455.722L457.583 25.2065Z" fill="white"/>
<path d="M486.317 13.8796C486.317 6.25733 492.894 0 500.941 0C508.989 0 515.565 6.25733 515.565 13.8796C515.565 21.5018 508.989 27.9719 500.941 27.9719C492.894 27.9719 486.317 21.6436 486.317 13.8796ZM507.553 13.8796C507.553 5.12286 505.55 0.833128 500.941 0.833128C496.332 0.833128 494.329 4.76833 494.329 13.8796C494.329 22.9908 496.332 27.1565 500.941 27.1565C505.55 27.1565 507.553 23.1858 507.553 13.8796Z" fill="white"/>
<path d="M532.919 29.0003L521.769 5.72583H521.344V25.0296L524.499 27.529H517.196L520.334 25.0296V3.75822L517.834 0.727051H527.991L536.181 17.8505H536.713L543.714 0.727051H552.648L550.787 3.04918V25.2246L552.648 27.5467H541.375L543.236 25.2246V5.72583H542.704L532.902 29.0003H532.919Z" fill="white"/>
<path d="M555.325 27.5287L557.186 25.0293V3.20838L555.325 0.708984H577.359V1.41803L578.316 9.85569L571.314 1.48894H564.738V13.33H568.602L572.218 7.95898V19.5164L568.602 14.11H564.738V26.731H572.431L579.362 17.3539L578.546 26.8019V27.5109H555.343L555.325 27.5287Z" fill="white"/>
</svg>
