<svg width="337" height="65" viewBox="0 0 337 65" fill="none" xmlns="http://www.w3.org/2000/svg">
<path d="M13.33 64.4301H11.78L8.6 54.2401L5.4 64.4301H3.86L0 51.8901H1.54L4.67 62.1701L7.87 51.8901H9.31L12.51 62.1701L15.64 51.8901H17.19L13.33 64.4301Z" fill="white"/>
<path d="M31.64 64.4301H30.09L26.91 54.2401L23.71 64.4301H22.17L18.31 51.8901H19.85L22.98 62.1701L26.18 51.8901H27.62L30.82 62.1701L33.95 51.8901H35.5L31.64 64.4301Z" fill="white"/>
<path d="M49.95 64.4301H48.4L45.22 54.2401L42.02 64.4301H40.48L36.62 51.8901H38.16L41.29 62.1701L44.49 51.8901H45.93L49.13 62.1701L52.26 51.8901H53.81L49.95 64.4301Z" fill="white"/>
<path d="M57.19 62.8801C57.38 63.0701 57.47 63.2901 57.47 63.5501C57.47 63.8101 57.38 64.0301 57.19 64.2101C57 64.3901 56.77 64.4801 56.5 64.4801C56.23 64.4801 55.99 64.3901 55.81 64.2101C55.62 64.0301 55.53 63.8101 55.53 63.5501C55.53 63.2901 55.62 63.0601 55.81 62.8801C56 62.6901 56.23 62.6001 56.5 62.6001C56.77 62.6001 57 62.6901 57.19 62.8801Z" fill="white"/>
<path d="M65.99 51.8901C67.31 51.8901 68.37 52.2501 69.16 52.9701C69.95 53.6901 70.35 54.6301 70.35 55.7901C70.35 56.9501 69.95 57.8901 69.16 58.6101C68.37 59.3301 67.31 59.6901 65.99 59.6901H62V64.4501H60.52V51.9101H65.99V51.8901ZM65.99 58.3501C66.88 58.3501 67.58 58.1101 68.11 57.6401C68.63 57.1701 68.9 56.5501 68.9 55.7901C68.9 55.0301 68.64 54.4101 68.11 53.9401C67.59 53.4701 66.88 53.2301 65.99 53.2301H62V58.3601H65.99V58.3501Z" fill="white"/>
<path d="M83.54 58.9501C83.54 60.6601 83.06 62.0401 82.11 63.1001C81.15 64.1501 79.89 64.6801 78.32 64.6801C76.75 64.6801 75.46 64.1501 74.49 63.1001C73.52 62.0501 73.04 60.6601 73.04 58.9501V51.8901H74.52V58.9501C74.52 60.2501 74.87 61.2901 75.56 62.0801C76.25 62.8701 77.17 63.2601 78.32 63.2601C79.47 63.2601 80.35 62.8701 81.03 62.0801C81.71 61.2901 82.06 60.2501 82.06 58.9501V51.8901H83.54V58.9501Z" fill="white"/>
<path d="M95.72 64.4301L90.93 59.0601H88.63V64.4301H87.15V51.8901H92.95C94.17 51.8901 95.16 52.2201 95.92 52.8701C96.68 53.5201 97.05 54.3901 97.05 55.4601C97.05 56.5301 96.67 57.4001 95.92 58.0601C95.17 58.7201 94.18 59.0501 92.95 59.0501H92.73L97.58 64.4201H95.73L95.72 64.4301ZM92.95 57.7101C93.74 57.7101 94.37 57.5001 94.85 57.0901C95.33 56.6801 95.57 56.1401 95.57 55.4601C95.57 54.7801 95.33 54.2401 94.85 53.8301C94.37 53.4201 93.74 53.2101 92.95 53.2101H88.63V57.7001H92.95V57.7101Z" fill="white"/>
<path d="M100.16 64.4301V51.8901H101.64V64.4301H100.16Z" fill="white"/>
<path d="M116.34 64.4301H115.07L106.87 54.4701V64.4301H105.39V51.8901H106.66L114.86 61.9601V51.8901H116.34V64.4301Z" fill="white"/>
<path d="M130.43 58.9501C130.43 60.6601 129.95 62.0401 129 63.1001C128.04 64.1501 126.78 64.6801 125.21 64.6801C123.64 64.6801 122.35 64.1501 121.38 63.1001C120.41 62.0501 119.93 60.6601 119.93 58.9501V51.8901H121.41V58.9501C121.41 60.2501 121.76 61.2901 122.45 62.0801C123.14 62.8701 124.06 63.2601 125.21 63.2601C126.36 63.2601 127.24 62.8701 127.92 62.0801C128.6 61.2901 128.95 60.2501 128.95 58.9501V51.8901H130.43V58.9501Z" fill="white"/>
<path d="M141.34 52.5802C142.18 53.2002 142.71 54.0402 142.92 55.0902L141.44 55.4302C141.3 54.6702 140.94 54.0602 140.35 53.6102C139.76 53.1602 139.04 52.9402 138.18 52.9402C137.32 52.9402 136.64 53.1502 136.12 53.5702C135.6 53.9902 135.33 54.5302 135.33 55.2102C135.33 55.7502 135.49 56.1602 135.81 56.4602C136.13 56.7602 136.6 56.9602 137.22 57.0902L139.95 57.7102C142.06 58.1602 143.11 59.2502 143.11 60.9702C143.11 62.1102 142.69 63.0102 141.84 63.6802C140.99 64.3502 139.86 64.6902 138.45 64.6902C137.04 64.6902 135.94 64.3602 134.99 63.6902C134.05 63.0202 133.5 62.1102 133.35 60.9502L134.9 60.6302C135.04 61.5002 135.44 62.1802 136.1 62.6602C136.76 63.1402 137.59 63.3802 138.57 63.3802C139.55 63.3802 140.26 63.1602 140.81 62.7302C141.35 62.3002 141.62 61.7302 141.62 61.0302C141.62 60.4602 141.46 60.0302 141.14 59.7402C140.82 59.4502 140.3 59.2302 139.58 59.0702L136.75 58.4502C134.74 58.0002 133.74 56.9302 133.74 55.2502C133.74 54.1802 134.15 53.3102 134.97 52.6502C135.79 51.9902 136.86 51.6602 138.2 51.6602C139.44 51.6602 140.48 51.9702 141.32 52.6002L141.34 52.5802Z" fill="white"/>
<path d="M155.8 64.4301L154.4 61.2501H147.79L146.39 64.4301H144.8L150.42 51.8901H151.79L157.41 64.4301H155.82H155.8ZM151.1 53.7201L148.37 59.9201H153.82L151.11 53.7201H151.1Z" fill="white"/>
<path d="M168.18 64.4301L161.87 58.8701H161.18V64.4301H159.7V51.8901H161.18V57.5401H161.76L167.92 51.8901H169.77L162.97 58.1601L170.18 64.4301H168.18Z" fill="white"/>
<path d="M181.92 64.4301H172.76V51.8901H181.9V53.2201H174.24V57.4701H181.35V58.8001H174.24V63.0901H181.92V64.4401V64.4301Z" fill="white"/>
<path d="M198.67 64.4301H197.25V55.2201L192.4 64.4301H191.44L186.57 55.2201V64.4301H185.15V51.8901H186.44L191.91 62.2201L197.38 51.8901H198.67V64.4301Z" fill="white"/>
<path d="M209.81 58.0499C210.53 58.1399 211.14 58.4499 211.62 58.9799C212.1 59.5099 212.34 60.1899 212.34 61.0299C212.34 62.0499 212 62.8799 211.32 63.4999C210.64 64.1199 209.68 64.4399 208.45 64.4399H202.44V51.8999H208.21C209.37 51.8999 210.28 52.1999 210.94 52.7999C211.6 53.3999 211.93 54.1999 211.93 55.1999C211.93 55.9599 211.72 56.5999 211.3 57.1199C210.88 57.6399 210.39 57.9299 209.81 58.0099V58.0699V58.0499ZM203.91 57.5099H208.18C208.88 57.5099 209.44 57.2999 209.87 56.8899C210.3 56.4799 210.52 55.9399 210.52 55.2599C210.52 54.6199 210.3 54.1099 209.86 53.7299C209.42 53.3499 208.82 53.1599 208.07 53.1599H203.91V57.4999V57.5099ZM208.31 63.1599C209.08 63.1599 209.7 62.9499 210.15 62.5399C210.61 62.1299 210.83 61.5799 210.83 60.8899C210.83 60.1999 210.6 59.6999 210.13 59.2999C209.66 58.8999 209.06 58.6999 208.32 58.6999H203.9V63.1599H208.3H208.31Z" fill="white"/>
<path d="M224.96 64.4301L223.56 61.2501H216.95L215.55 64.4301H213.96L219.58 51.8901H220.95L226.57 64.4301H224.98H224.96ZM220.26 53.7201L217.53 59.9201H222.98L220.27 53.7201H220.26Z" fill="white"/>
<path d="M239.81 64.4301H238.54L230.34 54.4701V64.4301H228.86V51.8901H230.13L238.33 61.9601V51.8901H239.81V64.4301Z" fill="white"/>
<path d="M255.74 57.5399C255.75 57.6999 255.76 57.9099 255.76 58.1799C255.76 60.0299 255.17 61.5699 253.99 62.8099C252.81 64.0499 251.3 64.6699 249.47 64.6699C247.64 64.6699 246.09 64.0399 244.83 62.7799C243.57 61.5199 242.94 59.9799 242.94 58.1599C242.94 56.3399 243.57 54.7999 244.82 53.5399C246.07 52.2799 247.61 51.6499 249.44 51.6499C250.83 51.6499 252.05 51.9699 253.1 52.6099C254.15 53.2499 254.91 54.1399 255.36 55.2799L254.03 55.7499C253.59 54.8599 252.98 54.1899 252.18 53.7299C251.38 53.2699 250.47 53.0399 249.45 53.0399C248.04 53.0399 246.85 53.5399 245.89 54.5299C244.93 55.5199 244.45 56.7399 244.45 58.1699C244.45 59.5999 244.94 60.8199 245.92 61.8099C246.9 62.7999 248.1 63.2999 249.52 63.2999C250.83 63.2999 251.93 62.8899 252.81 62.0599C253.69 61.2399 254.21 60.1799 254.35 58.8999H248.81V57.5499H255.76L255.74 57.5399Z" fill="white"/>
<path d="M268.11 64.4301L266.71 61.2501H260.1L258.7 64.4301H257.11L262.73 51.8901H264.1L269.72 64.4301H268.13H268.11ZM263.41 53.7201L260.68 59.9201H266.13L263.42 53.7201H263.41Z" fill="white"/>
<path d="M282.96 64.4301H281.69L273.49 54.4701V64.4301H272.01V51.8901H273.28L281.48 61.9601V51.8901H282.96V64.4301Z" fill="white"/>
<path d="M287.66 62.8801C287.85 63.0701 287.94 63.2901 287.94 63.5501C287.94 63.8101 287.85 64.0301 287.66 64.2101C287.47 64.3901 287.24 64.4801 286.97 64.4801C286.7 64.4801 286.46 64.3901 286.28 64.2101C286.09 64.0301 286 63.8101 286 63.5501C286 63.2901 286.09 63.0601 286.28 62.8801C286.47 62.6901 286.7 62.6001 286.97 62.6001C287.24 62.6001 287.47 62.6901 287.66 62.8801Z" fill="white"/>
<path d="M299.46 62.4602C300.26 61.9002 300.83 61.1202 301.15 60.0902L302.57 60.4302C302.18 61.7402 301.45 62.7802 300.38 63.5402C299.31 64.3002 298.05 64.6802 296.6 64.6802C294.78 64.6802 293.24 64.0502 291.98 62.7902C290.72 61.5302 290.09 59.9902 290.09 58.1702C290.09 56.3502 290.72 54.8102 291.98 53.5502C293.24 52.2902 294.78 51.6602 296.6 51.6602C298.04 51.6602 299.29 52.0402 300.37 52.7902C301.45 53.5502 302.18 54.5502 302.57 55.8102L301.15 56.2202C300.84 55.2202 300.28 54.4402 299.47 53.8802C298.66 53.3202 297.7 53.0402 296.6 53.0402C295.19 53.0402 294 53.5302 293.03 54.5202C292.06 55.5102 291.58 56.7202 291.58 58.1702C291.58 59.6202 292.06 60.8202 293.03 61.8102C294 62.8002 295.19 63.3002 296.6 63.3002C297.7 63.3002 298.65 63.0202 299.46 62.4702V62.4602Z" fill="white"/>
<path d="M316.2 53.5301C317.45 54.7901 318.08 56.3301 318.08 58.1501C318.08 59.9701 317.45 61.5101 316.2 62.7701C314.95 64.0301 313.41 64.6601 311.6 64.6601C309.79 64.6601 308.24 64.0301 306.98 62.7701C305.73 61.5101 305.1 59.9701 305.1 58.1501C305.1 56.3301 305.73 54.7901 306.98 53.5301C308.23 52.2701 309.77 51.6401 311.6 51.6401C313.43 51.6401 314.94 52.2701 316.2 53.5301ZM315.14 61.8001C316.1 60.8201 316.58 59.6101 316.58 58.1601C316.58 56.7101 316.1 55.5101 315.14 54.5201C314.18 53.5301 313 53.0301 311.6 53.0301C310.2 53.0301 309 53.5301 308.04 54.5201C307.08 55.5101 306.6 56.7301 306.6 58.1601C306.6 59.5901 307.08 60.8201 308.04 61.8001C309 62.7801 310.19 63.2701 311.6 63.2701C313.01 63.2701 314.18 62.7801 315.14 61.8001Z" fill="white"/>
<path d="M334.74 64.4301H333.32V55.2201L328.47 64.4301H327.51L322.64 55.2201V64.4301H321.22V51.8901H322.51L327.98 62.2201L333.45 51.8901H334.74V64.4301Z" fill="white"/>
<path d="M26.99 4.85C29.64 8.08 30.97 12.3 30.97 17.5C30.97 22.7 29.64 26.96 26.99 30.18C24.34 33.4 20.87 35.01 16.57 35.01C12.27 35.01 8.78997 33.4 6.13997 30.18C3.48997 26.96 2.15997 22.74 2.15997 17.5C2.15997 12.26 3.48997 8.08 6.13997 4.85C8.78997 1.62 12.26 0 16.57 0C20.88 0 24.35 1.62 26.99 4.85ZM22.02 25.65C23.39 23.58 24.07 20.87 24.07 17.5C24.07 14.13 23.39 11.42 22.02 9.35C20.65 7.28 18.84 6.25 16.57 6.25C14.3 6.25 12.49 7.28 11.12 9.35C9.74997 11.42 9.06997 14.13 9.06997 17.5C9.06997 20.87 9.74997 23.58 11.12 25.65C12.49 27.72 14.3 28.75 16.57 28.75C18.84 28.75 20.65 27.72 22.02 25.65Z" fill="white"/>
<path d="M62.11 20.48C63.21 21.9 63.76 23.47 63.76 25.2C63.76 28.1 62.6 30.46 60.28 32.28C57.96 34.1 54.92 35 51.16 35C47.4 35 44.29 34.09 41.96 32.28C39.63 30.46 38.46 28.1 38.46 25.2C38.46 23.47 39.01 21.9 40.11 20.5C41.21 19.1 42.76 18.03 44.76 17.3C41.26 15.77 39.51 13.07 39.51 9.2C39.51 6.43 40.58 4.21 42.71 2.53C44.84 0.85 47.66 0 51.16 0C54.66 0 57.43 0.84 59.56 2.53C61.69 4.21 62.76 6.44 62.76 9.2C62.76 11.03 62.31 12.66 61.41 14.08C60.51 15.5 59.21 16.57 57.51 17.3C59.48 18 61.01 19.06 62.11 20.48ZM54.81 28.13C55.84 27.31 56.36 26.19 56.36 24.75C56.36 23.31 55.84 22.21 54.81 21.42C53.78 20.64 52.53 20.24 51.06 20.24C49.59 20.24 48.42 20.64 47.44 21.44C46.46 22.24 45.97 23.37 45.97 24.84C45.97 26.31 46.45 27.38 47.42 28.17C48.39 28.95 49.6 29.34 51.07 29.34C52.54 29.34 53.79 28.93 54.82 28.12L54.81 28.13ZM47.66 6.6C46.73 7.37 46.26 8.43 46.26 9.8C46.26 11.17 46.72 12.22 47.64 12.95C48.56 13.68 49.7 14.05 51.06 14.05C52.42 14.05 53.6 13.67 54.59 12.9C55.57 12.13 56.07 11.07 56.07 9.7C56.07 8.33 55.58 7.32 54.59 6.57C53.6 5.82 52.43 5.45 51.06 5.45C49.69 5.45 48.59 5.83 47.66 6.6Z" fill="white"/>
<path d="M83.76 34.25H77.16V8.7L68.91 12.95V6.9L79.56 0.75H83.76V34.25Z" fill="white"/>
<path d="M116.41 20.48C117.51 21.9 118.06 23.47 118.06 25.2C118.06 28.1 116.9 30.46 114.58 32.28C112.26 34.1 109.22 35 105.46 35C101.7 35 98.5899 34.09 96.2599 32.28C93.9299 30.46 92.7599 28.1 92.7599 25.2C92.7599 23.47 93.31 21.9 94.41 20.5C95.51 19.1 97.0599 18.03 99.0599 17.3C95.5599 15.77 93.8099 13.07 93.8099 9.2C93.8099 6.43 94.8799 4.21 97.0099 2.53C99.1399 0.85 101.96 0 105.46 0C108.96 0 111.73 0.84 113.86 2.53C115.99 4.21 117.06 6.44 117.06 9.2C117.06 11.03 116.61 12.66 115.71 14.08C114.81 15.5 113.51 16.57 111.81 17.3C113.78 18 115.31 19.06 116.41 20.48ZM109.11 28.13C110.14 27.31 110.66 26.19 110.66 24.75C110.66 23.31 110.14 22.21 109.11 21.42C108.08 20.64 106.83 20.24 105.36 20.24C103.89 20.24 102.72 20.64 101.74 21.44C100.76 22.24 100.27 23.37 100.27 24.84C100.27 26.31 100.75 27.38 101.72 28.17C102.69 28.95 103.9 29.34 105.37 29.34C106.84 29.34 108.09 28.93 109.12 28.12L109.11 28.13ZM101.96 6.6C101.03 7.37 100.56 8.43 100.56 9.8C100.56 11.17 101.02 12.22 101.94 12.95C102.86 13.68 104 14.05 105.36 14.05C106.72 14.05 107.9 13.67 108.89 12.9C109.87 12.13 110.37 11.07 110.37 9.7C110.37 8.33 109.88 7.32 108.89 6.57C107.9 5.82 106.73 5.45 105.36 5.45C103.99 5.45 102.89 5.83 101.96 6.6Z" fill="white"/>
<path d="M164.36 20.48C165.46 21.9 166.01 23.47 166.01 25.2C166.01 28.1 164.85 30.46 162.53 32.28C160.21 34.1 157.17 35 153.41 35C149.65 35 146.54 34.09 144.21 32.28C141.88 30.46 140.71 28.1 140.71 25.2C140.71 23.47 141.26 21.9 142.36 20.5C143.46 19.1 145.01 18.03 147.01 17.3C143.51 15.77 141.76 13.07 141.76 9.2C141.76 6.43 142.83 4.21 144.96 2.53C147.09 0.85 149.91 0 153.41 0C156.91 0 159.68 0.84 161.81 2.53C163.94 4.21 165.01 6.44 165.01 9.2C165.01 11.03 164.56 12.66 163.66 14.08C162.76 15.5 161.46 16.57 159.76 17.3C161.73 18 163.26 19.06 164.36 20.48ZM157.06 28.13C158.09 27.31 158.61 26.19 158.61 24.75C158.61 23.31 158.09 22.21 157.06 21.42C156.03 20.64 154.78 20.24 153.31 20.24C151.84 20.24 150.67 20.64 149.69 21.44C148.71 22.24 148.22 23.37 148.22 24.84C148.22 26.31 148.7 27.38 149.67 28.17C150.64 28.95 151.85 29.34 153.32 29.34C154.79 29.34 156.04 28.93 157.07 28.12L157.06 28.13ZM149.91 6.6C148.98 7.37 148.51 8.43 148.51 9.8C148.51 11.17 148.97 12.22 149.89 12.95C150.81 13.68 151.95 14.05 153.31 14.05C154.67 14.05 155.85 13.67 156.84 12.9C157.82 12.13 158.32 11.07 158.32 9.7C158.32 8.33 157.83 7.32 156.84 6.57C155.85 5.82 154.68 5.45 153.31 5.45C151.94 5.45 150.84 5.83 149.91 6.6Z" fill="white"/>
<path d="M195.94 20.08C196.69 21.3 197.06 22.7 197.06 24.31C197.06 27.51 195.97 30.09 193.78 32.06C191.59 34.03 188.74 35.01 185.2 35.01C181.66 35.01 178.82 34.04 176.57 32.11C174.32 30.18 173.06 27.61 172.79 24.41L179.14 23.16C179.67 27.13 181.69 29.11 185.19 29.11C186.82 29.11 188.17 28.67 189.24 27.78C190.31 26.9 190.84 25.76 190.84 24.36C190.84 23.06 190.4 22.02 189.51 21.24C188.63 20.46 187.39 20.07 185.78 20.07H181.93V14.67H185.38C186.91 14.67 188.11 14.29 188.98 13.52C189.85 12.75 190.28 11.74 190.28 10.47C190.28 9.1 189.81 8.01 188.88 7.19C187.95 6.37 186.71 5.96 185.18 5.96C183.55 5.96 182.21 6.46 181.18 7.46C180.15 8.46 179.56 9.98 179.43 12.01L173.23 10.76C173.5 7.56 174.71 4.97 176.88 2.98C179.05 0.99 181.81 0 185.18 0C188.55 0 191.32 0.97 193.41 2.9C195.49 4.83 196.53 7.35 196.53 10.45C196.53 13.75 195.28 16.07 192.78 17.4C194.11 17.97 195.16 18.86 195.9 20.07L195.94 20.08Z" fill="white"/>
<path d="M230.14 4.85C232.79 8.08 234.12 12.3 234.12 17.5C234.12 22.7 232.79 26.96 230.14 30.18C227.49 33.4 224.02 35.01 219.72 35.01C215.42 35.01 211.94 33.4 209.29 30.18C206.64 26.96 205.31 22.74 205.31 17.5C205.31 12.26 206.64 8.08 209.29 4.85C211.94 1.62 215.41 0 219.72 0C224.03 0 227.5 1.62 230.14 4.85ZM225.17 25.65C226.54 23.58 227.22 20.87 227.22 17.5C227.22 14.13 226.54 11.42 225.17 9.35C223.8 7.28 221.99 6.25 219.72 6.25C217.45 6.25 215.64 7.28 214.27 9.35C212.9 11.42 212.22 14.13 212.22 17.5C212.22 20.87 212.9 23.58 214.27 25.65C215.64 27.72 217.45 28.75 219.72 28.75C221.99 28.75 223.8 27.72 225.17 25.65Z" fill="white"/>
<path d="M270.76 34.25H264.16V8.7L255.91 12.95V6.9L266.56 0.75H270.76V34.25Z" fill="white"/>
<path d="M293.36 12.5998C296.79 12.5998 299.56 13.5798 301.66 15.5298C303.76 17.4798 304.81 20.1098 304.81 23.4098C304.81 26.7098 303.68 29.5898 301.41 31.7598C299.14 33.9298 296.16 35.0098 292.46 35.0098C288.76 35.0098 285.97 33.9898 283.58 31.9598C281.19 29.9298 280 27.0798 280 23.4098L286.55 22.1098C286.55 24.3798 287.12 26.0798 288.25 27.2098C289.38 28.3398 290.83 28.9098 292.6 28.9098C294.37 28.9098 295.68 28.4198 296.73 27.4298C297.78 26.4498 298.3 25.1398 298.3 23.5098C298.3 22.0798 297.8 20.9098 296.8 20.0098C295.8 19.1098 294.48 18.6598 292.85 18.6598H281.65L282.2 0.759766H303.25V6.90977H288.5L288.25 12.6098H293.35L293.36 12.5998Z" fill="white"/>
<path d="M335.74 20.08C336.49 21.3 336.86 22.7 336.86 24.31C336.86 27.51 335.77 30.09 333.58 32.06C331.39 34.03 328.54 35.01 325 35.01C321.46 35.01 318.62 34.04 316.37 32.11C314.12 30.18 312.86 27.61 312.59 24.41L318.94 23.16C319.47 27.13 321.49 29.11 324.99 29.11C326.62 29.11 327.97 28.67 329.04 27.78C330.11 26.9 330.64 25.76 330.64 24.36C330.64 23.06 330.2 22.02 329.31 21.24C328.43 20.46 327.19 20.07 325.58 20.07H321.73V14.67H325.18C326.71 14.67 327.91 14.29 328.78 13.52C329.65 12.75 330.08 11.74 330.08 10.47C330.08 9.1 329.61 8.01 328.68 7.19C327.75 6.37 326.51 5.96 324.98 5.96C323.35 5.96 322.01 6.46 320.98 7.46C319.95 8.46 319.36 9.98 319.23 12.01L313.03 10.76C313.3 7.56 314.51 4.97 316.68 2.98C318.85 0.99 321.61 0 324.98 0C328.35 0 331.12 0.97 333.21 2.9C335.29 4.83 336.33 7.35 336.33 10.45C336.33 13.75 335.08 16.07 332.58 17.4C333.91 17.97 334.96 18.86 335.7 20.07L335.74 20.08Z" fill="white"/>
</svg>
